<svg width="1440" height="570" viewBox="0 0 1440 570" fill="none" xmlns="http://www.w3.org/2000/svg">
<g clip-path="url(#clip0_46_1182)">
<path d="M1455.92 338.189C1425.15 355.966 1375.27 355.966 1344.5 338.189C1329.11 329.301 1321.42 317.651 1321.42 306.002L1321.42 570.149L1469 570.149C1474.52 570.149 1479 565.672 1479 560.149L1479 306.012C1479 317.658 1471.3 329.303 1455.92 338.189Z" fill="url(#paint0_linear_46_1182)"/>
<path d="M1479 305.991C1479 305.979 1479 305.968 1479 305.957L1479 305.991Z" fill="url(#paint1_linear_46_1182)"/>
<path d="M1455.92 338.189C1425.15 355.966 1375.27 355.966 1344.5 338.189C1329.11 329.301 1321.42 317.651 1321.42 306.002L1321.42 570.149L1469 570.149C1474.52 570.149 1479 565.672 1479 560.149L1479 306.012C1479 317.658 1471.3 329.303 1455.92 338.189Z" stroke="#151515" stroke-width="2" stroke-linejoin="round"/>
<path d="M1479 305.991C1479 305.979 1479 305.968 1479 305.957L1479 305.991Z" stroke="#151515" stroke-width="2" stroke-linejoin="round"/>
<path d="M1426.67 348.893C1398.91 354.597 1366.72 351.03 1344.5 338.193C1329.09 329.293 1321.4 317.624 1321.42 305.959L1321.42 305.959L1321.42 570.149L1426.67 570.149L1426.67 348.893Z" fill="#151515" stroke="#151515" stroke-width="2" stroke-linejoin="round"/>
<path d="M1344.49 337.979C1375.26 355.909 1425.15 355.909 1455.92 337.979C1486.69 320.05 1486.69 290.98 1455.92 273.051C1425.15 255.121 1375.26 255.121 1344.49 273.051C1313.72 290.98 1313.72 320.05 1344.49 337.979Z" fill="#8E44EC" stroke="#151515" stroke-width="2" stroke-linejoin="round"/>
<path d="M1307.26 399.738C1276.49 417.514 1226.6 417.514 1195.83 399.738C1180.45 390.85 1172.75 379.2 1172.75 367.55L1172.75 570.148L1330.33 570.148L1330.33 367.561C1330.33 379.207 1322.64 390.852 1307.26 399.738Z" fill="url(#paint2_linear_46_1182)"/>
<path d="M1330.33 367.539C1330.33 367.528 1330.33 367.517 1330.33 367.506L1330.33 367.539Z" fill="url(#paint3_linear_46_1182)"/>
<path d="M1307.26 399.738C1276.49 417.514 1226.6 417.514 1195.83 399.738C1180.45 390.85 1172.75 379.2 1172.75 367.55L1172.75 570.148L1330.33 570.148L1330.33 367.561C1330.33 379.207 1322.64 390.852 1307.26 399.738Z" stroke="#151515" stroke-width="2" stroke-linejoin="round"/>
<path d="M1330.33 367.539C1330.33 367.528 1330.33 367.517 1330.33 367.506L1330.33 367.539Z" stroke="#151515" stroke-width="2" stroke-linejoin="round"/>
<path d="M1278 410.442C1250.24 416.146 1218.05 412.579 1195.83 399.742C1180.43 390.841 1172.73 379.173 1172.75 367.508L1172.75 367.508L1172.75 570.147L1278 570.147L1278 410.442Z" fill="#151515" stroke="#151515" stroke-width="2" stroke-linejoin="round"/>
<path d="M1195.82 399.53C1226.59 417.46 1276.48 417.46 1307.25 399.53C1338.02 381.6 1338.02 352.531 1307.25 334.601C1276.48 316.672 1226.59 316.672 1195.82 334.601C1165.05 352.531 1165.05 381.601 1195.82 399.53Z" fill="#8E44EC" stroke="#151515" stroke-width="2" stroke-linejoin="round"/>
<path d="M1158.57 461.291C1127.8 479.067 1077.92 479.067 1047.15 461.291C1031.76 452.402 1024.07 440.753 1024.07 429.103L1024.07 560.149C1024.07 565.672 1028.55 570.149 1034.07 570.149L1181.65 570.149L1181.65 429.114C1181.64 440.76 1173.95 452.405 1158.57 461.291Z" fill="url(#paint4_linear_46_1182)"/>
<path d="M1181.65 429.114C1181.65 429.107 1181.65 429.099 1181.65 429.092L1181.65 429.114Z" fill="url(#paint5_linear_46_1182)"/>
<path d="M1181.65 429.092C1181.65 429.081 1181.65 429.07 1181.65 429.059Z" fill="url(#paint6_linear_46_1182)"/>
<path d="M1181.65 429.114L1181.65 570.149L1034.07 570.149C1028.55 570.149 1024.07 565.672 1024.07 560.149L1024.07 429.103C1024.07 440.753 1031.76 452.402 1047.15 461.291C1077.92 479.067 1127.8 479.067 1158.57 461.291C1173.95 452.405 1181.64 440.76 1181.65 429.114ZM1181.65 429.114C1181.65 429.107 1181.65 429.099 1181.65 429.092M1181.65 429.114L1181.65 429.092M1181.65 429.092C1181.65 429.081 1181.65 429.07 1181.65 429.059L1181.65 429.092Z" stroke="#151515" stroke-width="2" stroke-linejoin="round"/>
<path d="M1129.32 471.995C1101.56 477.699 1069.37 474.132 1047.15 461.294C1031.74 452.394 1024.05 440.726 1024.07 429.061L1024.07 429.061L1024.07 560.15C1024.07 565.673 1028.55 570.15 1034.07 570.15L1129.32 570.15L1129.32 471.995Z" fill="#151515" stroke="#151515" stroke-width="2" stroke-linejoin="round"/>
<path d="M1047.14 461.083C1077.91 479.012 1127.8 479.012 1158.57 461.083C1189.34 443.153 1189.34 414.084 1158.57 396.154C1127.8 378.225 1077.91 378.225 1047.14 396.154C1016.37 414.084 1016.37 443.153 1047.14 461.083Z" fill="#8E44EC" stroke="#151515" stroke-width="2" stroke-linejoin="round"/>
<path opacity="0.2" d="M1173.69 368.24L1249.62 411.975L1330.03 365.836L1254.11 322.102L1173.69 368.24Z" fill="#151515" stroke="#151515" stroke-width="2" stroke-linecap="round" stroke-linejoin="round"/>
<path d="M1173.69 345.395L1249.62 389.129L1323.2 346.913L1247.27 303.179L1173.69 345.395Z" fill="#3BBB96" stroke="#151515" stroke-width="2" stroke-linecap="round" stroke-linejoin="round"/>
<path d="M1249.62 400.385V389.128L1323.26 346.975V358.231L1249.62 400.385Z" fill="#75DCC0" stroke="#151515" stroke-width="2" stroke-linecap="round" stroke-linejoin="round"/>
<path d="M1173.69 345.396L1249.62 389.13V400.386L1173.69 356.652V345.396Z" fill="#151515" stroke="#151515" stroke-width="2" stroke-linecap="round" stroke-linejoin="round"/>
<path d="M1200.29 334.965L1184.04 344.34L1216.49 362.894L1248.93 381.448L1266.2 371.488L1283.47 361.527L1251.02 342.973L1218.57 324.419L1200.29 334.965Z" fill="#75DCC0" stroke="#151515" stroke-width="2" stroke-linejoin="round"/>
<path d="M1233.66 348.05L1235.83 353.79L1225.87 352.542L1233.66 348.05Z" fill="#75DCC0" stroke="#151515" stroke-width="2" stroke-linecap="round" stroke-linejoin="round"/>
<path d="M1235.83 353.79L1233.66 348.05L1225.87 352.542L1228.49 352.87L1233.66 349.884L1235.1 353.699L1235.83 353.79Z" fill="#3BBB96"/>
<path d="M1233.66 348.05L1235.83 353.79L1235.1 353.699L1233.66 349.884M1233.66 348.05L1225.87 352.542L1228.49 352.87L1233.66 349.884M1233.66 348.05V349.884" stroke="#151515" stroke-width="2" stroke-linecap="round" stroke-linejoin="round"/>
<path d="M1248.94 383.011V381.449L1283.47 361.527V363.09L1248.94 383.011Z" fill="#75DCC0" stroke="#151515" stroke-width="2" stroke-linejoin="round"/>
<path d="M1184.04 344.339L1248.93 381.447V383.01L1184.04 345.901V344.339Z" fill="#151515" stroke="#151515" stroke-width="2" stroke-linejoin="round"/>
<path d="M1262.36 325.219C1263.26 324.697 1264.73 324.698 1265.63 325.22L1282.43 334.947C1283.27 335.434 1283.33 336.211 1282.56 336.734C1281.69 337.322 1280.14 337.358 1279.19 336.813L1262.36 327.104C1261.45 326.584 1261.45 325.739 1262.36 325.219Z" fill="#75DCC0" stroke="#151515" stroke-width="2" stroke-linejoin="round"/>
<path d="M1262.36 323.619C1263.26 323.098 1264.73 323.098 1265.63 323.621L1282.43 333.347C1283.27 333.834 1283.33 334.611 1282.56 335.135C1281.69 335.723 1280.14 335.759 1279.19 335.213L1262.36 325.505C1261.45 324.984 1261.45 324.14 1262.36 323.619Z" fill="#75DCC0" stroke="#151515" stroke-width="2" stroke-linejoin="round"/>
<path d="M1262.36 325.505L1279.19 335.214V336.815L1262.36 327.106C1261.91 326.848 1261.69 326.512 1261.68 326.174L1261.68 324.567C1261.68 324.907 1261.91 325.246 1262.36 325.505Z" fill="#151515" stroke="#151515" stroke-width="2" stroke-linejoin="round"/>
<path d="M1279.19 335.213C1280.14 335.759 1281.69 335.723 1282.56 335.135C1282.92 334.888 1283.1 334.584 1283.1 334.281V335.882C1283.1 336.185 1282.92 336.489 1282.56 336.736C1281.69 337.324 1280.14 337.36 1279.19 336.814V335.213Z" fill="#75DCC0" stroke="#151515" stroke-width="2" stroke-linejoin="round"/>
<path d="M1241.93 321.218C1242.84 320.697 1244.3 320.697 1245.21 321.219L1288.08 345.985C1288.86 346.434 1288.97 347.14 1288.35 347.664C1287.54 348.345 1285.85 348.435 1284.84 347.851L1241.93 323.105C1241.03 322.584 1241.03 321.739 1241.93 321.218Z" fill="#75DCC0" stroke="#151515" stroke-width="2" stroke-linejoin="round"/>
<path d="M1241.93 319.618C1242.84 319.097 1244.3 319.097 1245.21 319.619L1288.08 344.385C1288.86 344.835 1288.97 345.54 1288.35 346.064C1287.54 346.745 1285.85 346.835 1284.84 346.251L1241.93 321.505C1241.03 320.984 1241.03 320.139 1241.93 319.618Z" fill="#75DCC0" stroke="#151515" stroke-width="2" stroke-linejoin="round"/>
<path d="M1241.93 321.504L1284.84 346.25V347.851L1241.93 323.105C1241.47 322.84 1241.25 322.491 1241.26 322.144V320.58C1241.26 320.567 1241.26 320.555 1241.26 320.542V320.58C1241.27 320.915 1241.49 321.249 1241.93 321.504Z" fill="#151515"/>
<path d="M1241.93 321.504L1284.84 346.25V347.851L1241.93 323.105C1241.47 322.84 1241.25 322.491 1241.26 322.144V320.542C1241.25 320.89 1241.47 321.239 1241.93 321.504Z" stroke="#151515" stroke-width="2" stroke-linejoin="round"/>
<path d="M1284.85 346.251C1285.86 346.835 1287.54 346.745 1288.35 346.065C1288.62 345.845 1288.75 345.594 1288.76 345.343V346.895C1288.76 347.162 1288.63 347.432 1288.35 347.665C1287.54 348.346 1285.86 348.436 1284.85 347.852V346.251Z" fill="#75DCC0" stroke="#151515" stroke-width="2" stroke-linejoin="round"/>
<path d="M1243.46 328.152C1244.37 327.631 1245.83 327.632 1246.74 328.153L1277.83 346.125C1278.64 346.591 1278.72 347.328 1278.03 347.854C1277.2 348.493 1275.57 348.557 1274.59 347.991L1243.46 330.039C1242.56 329.518 1242.56 328.673 1243.46 328.152Z" fill="#75DCC0" stroke="#151515" stroke-width="2" stroke-linejoin="round"/>
<path d="M1243.46 326.553C1244.37 326.031 1245.83 326.032 1246.74 326.554L1277.83 344.525C1278.64 344.991 1278.72 345.729 1278.03 346.254C1277.2 346.893 1275.57 346.958 1274.59 346.391L1243.46 328.439C1242.56 327.918 1242.56 327.074 1243.46 326.553Z" fill="#75DCC0" stroke="#151515" stroke-width="2" stroke-linejoin="round"/>
<path d="M1243.46 328.439L1274.59 346.391V347.992L1243.46 330.04C1243 329.775 1242.78 329.427 1242.79 329.08V327.513C1242.79 327.502 1242.79 327.491 1242.79 327.479V327.513C1242.79 327.849 1243.02 328.183 1243.46 328.439Z" fill="#151515"/>
<path d="M1243.46 328.439L1274.59 346.391V347.992L1243.46 330.04C1243 329.775 1242.78 329.427 1242.79 329.08V327.479C1242.78 327.826 1243 328.175 1243.46 328.439Z" stroke="#151515" stroke-width="2" stroke-linejoin="round"/>
<path d="M1274.58 346.391C1275.57 346.957 1277.19 346.893 1278.03 346.254C1278.33 346.026 1278.48 345.758 1278.49 345.489V347.09C1278.48 347.359 1278.33 347.627 1278.03 347.855C1277.19 348.494 1275.57 348.558 1274.58 347.992V346.391Z" fill="#75DCC0" stroke="#151515" stroke-width="2" stroke-linejoin="round"/>
<path opacity="0.2" d="M1177.99 431.214L1098.2 385.251L1028.34 425.349L1108.14 471.312L1177.99 431.214Z" fill="#151515" stroke="#151515" stroke-width="2" stroke-linecap="round" stroke-linejoin="round"/>
<path d="M1028.34 401.366L1108.14 447.329V459.159L1028.34 413.196V401.366Z" fill="#151515" stroke="#151515" stroke-width="2" stroke-linecap="round" stroke-linejoin="round"/>
<path d="M1177.99 407.23L1098.2 361.268L1028.34 401.366L1108.14 447.329L1177.99 407.23Z" fill="#3BBB96" stroke="#151515" stroke-width="2" stroke-linecap="round" stroke-linejoin="round"/>
<path d="M1177.99 419.059L1177.99 407.229L1108.24 447.248L1108.24 459.077L1177.99 419.059Z" fill="#75DCC0" stroke="#151515" stroke-width="2" stroke-linecap="round" stroke-linejoin="round"/>
<path d="M1128.46 386.452L1099.04 369.627L1050.91 397.388L1080.34 414.213L1128.46 386.452Z" fill="#75DCC0" stroke="#151515" stroke-width="2" stroke-linejoin="round"/>
<path d="M1128.46 384.769L1099.04 367.944L1050.91 395.705L1080.34 412.53L1128.46 384.769Z" fill="#75DCC0" stroke="#151515" stroke-width="2" stroke-linejoin="round"/>
<path d="M1080.34 412.53L1050.91 395.705V397.388L1080.34 414.212V412.53Z" fill="#151515" stroke="#151515" stroke-width="2" stroke-linejoin="round"/>
<path d="M1080.34 412.53L1128.47 384.769V386.451L1080.34 414.212V412.53Z" fill="#75DCC0" stroke="#151515" stroke-width="2" stroke-linejoin="round"/>
<path d="M1133.06 391.653C1134.02 391.105 1135.56 391.107 1136.5 391.656L1148.21 398.442C1149.11 398.962 1149.15 399.796 1148.3 400.344C1147.38 400.941 1145.78 400.967 1144.8 400.403L1133.06 393.634C1132.12 393.087 1132.12 392.2 1133.06 391.653Z" fill="#151515" stroke="#151515" stroke-width="2" stroke-linejoin="round"/>
<path d="M1133.06 389.971C1134.02 389.423 1135.56 389.424 1136.5 389.973L1148.21 396.759C1149.11 397.28 1149.15 398.113 1148.3 398.661C1147.38 399.258 1145.78 399.285 1144.8 398.72L1133.06 391.952C1132.12 391.405 1132.12 390.518 1133.06 389.971Z" fill="#75DCC0" stroke="#151515" stroke-width="2" stroke-linejoin="round"/>
<path d="M1133.06 391.951L1144.8 398.719V400.402L1133.06 393.633C1132.57 393.35 1132.34 392.975 1132.35 392.604V391.004C1132.37 391.348 1132.61 391.689 1133.06 391.951Z" fill="#151515" stroke="#151515" stroke-width="2" stroke-linejoin="round"/>
<path d="M1144.81 398.718C1145.78 399.283 1147.39 399.256 1148.31 398.659C1148.71 398.397 1148.91 398.069 1148.92 397.742V397.731C1148.92 397.735 1148.92 397.738 1148.92 397.742V399.424C1148.91 399.752 1148.71 400.079 1148.31 400.342C1147.39 400.938 1145.78 400.965 1144.81 400.401V398.718Z" fill="#75DCC0"/>
<path d="M1148.31 398.659C1147.39 399.256 1145.78 399.283 1144.81 398.718V400.401C1145.78 400.965 1147.39 400.938 1148.31 400.342C1148.71 400.079 1148.91 399.752 1148.92 399.424V397.731C1148.92 398.062 1148.72 398.394 1148.31 398.659Z" stroke="#151515" stroke-width="2" stroke-linejoin="round"/>
<path d="M1125.06 394.598C1126.01 394.05 1127.55 394.051 1128.5 394.599L1153.45 409.027C1154.32 409.528 1154.39 410.324 1153.62 410.876C1152.72 411.519 1151.06 411.572 1150.04 410.988L1125.06 396.58C1124.11 396.033 1124.11 395.145 1125.06 394.598Z" fill="#75DCC0" stroke="#151515" stroke-width="2" stroke-linejoin="round"/>
<path d="M1125.06 394.598C1126.01 394.05 1127.55 394.051 1128.5 394.599L1153.45 409.027C1154.32 409.528 1154.39 410.324 1153.62 410.876C1152.72 411.519 1151.06 411.572 1150.04 410.988L1125.06 396.58C1124.11 396.033 1124.11 395.145 1125.06 394.598Z" fill="#75DCC0" stroke="#151515" stroke-width="2" stroke-linejoin="round"/>
<path d="M1125.06 396.58L1150.04 410.988C1150.04 411.736 1149.23 412.203 1148.59 411.829L1125.06 398.263C1124.58 397.985 1124.34 397.621 1124.35 397.258V395.603C1124.36 395.957 1124.59 396.31 1125.06 396.58Z" fill="#151515" stroke="#151515" stroke-width="2" stroke-linejoin="round"/>
<path d="M1150.05 410.988C1151.06 411.572 1152.73 411.519 1153.63 410.876C1153.98 410.621 1154.16 410.315 1154.16 410.01V411.692C1154.16 411.998 1153.98 412.304 1153.63 412.558C1152.73 413.202 1151.06 413.254 1150.05 412.67V410.988Z" fill="#75DCC0" stroke="#151515" stroke-width="2" stroke-linejoin="round"/>
<path d="M1117.06 399.222C1118.01 398.674 1119.55 398.675 1120.5 399.223L1145.45 413.651C1146.31 414.152 1146.39 414.948 1145.62 415.5C1144.72 416.144 1143.06 416.196 1142.04 415.612L1117.06 401.204C1116.11 400.657 1116.11 399.769 1117.06 399.222Z" fill="#75DCC0" stroke="#151515" stroke-width="2" stroke-linejoin="round"/>
<path d="M1117.06 399.222C1118.01 398.674 1119.55 398.675 1120.5 399.223L1145.45 413.651C1146.31 414.152 1146.39 414.948 1145.62 415.5C1144.72 416.144 1143.06 416.196 1142.04 415.612L1117.06 401.204C1116.11 400.657 1116.11 399.769 1117.06 399.222Z" fill="#75DCC0" stroke="#151515" stroke-width="2" stroke-linejoin="round"/>
<path d="M1117.06 401.204L1142.04 415.612V417.294L1117.06 402.887C1116.58 402.609 1116.34 402.245 1116.35 401.882V400.227C1116.36 400.581 1116.59 400.934 1117.06 401.204Z" fill="#151515" stroke="#151515" stroke-width="2" stroke-linejoin="round"/>
<path d="M1142.05 415.613C1143.06 416.197 1144.73 416.144 1145.62 415.501C1145.98 415.246 1146.15 414.94 1146.16 414.635V416.317C1146.15 416.623 1145.98 416.929 1145.62 417.183C1144.73 417.827 1143.06 417.879 1142.05 417.295V415.613Z" fill="#75DCC0" stroke="#151515" stroke-width="2" stroke-linejoin="round"/>
<path d="M1107.8 403.849C1108.75 403.301 1110.29 403.302 1111.24 403.85L1136.19 418.278C1137.05 418.779 1137.13 419.575 1136.36 420.127C1135.46 420.77 1133.8 420.823 1132.78 420.239L1107.8 405.831C1106.85 405.284 1106.85 404.396 1107.8 403.849Z" fill="#75DCC0" stroke="#151515" stroke-width="2" stroke-linejoin="round"/>
<path d="M1107.8 403.849C1108.75 403.301 1110.29 403.302 1111.24 403.85L1136.19 418.278C1137.05 418.779 1137.13 419.575 1136.36 420.127C1135.46 420.77 1133.8 420.823 1132.78 420.239L1107.8 405.831C1106.85 405.284 1106.85 404.396 1107.8 403.849Z" fill="#75DCC0" stroke="#151515" stroke-width="2" stroke-linejoin="round"/>
<path d="M1107.8 405.831L1132.78 420.239V421.921L1107.8 407.513C1107.32 407.236 1107.08 406.872 1107.09 406.509V404.854C1107.1 405.208 1107.33 405.561 1107.8 405.831Z" fill="#151515" stroke="#151515" stroke-width="2" stroke-linejoin="round"/>
<path d="M1132.79 420.24C1133.8 420.824 1135.47 420.771 1136.37 420.128C1136.72 419.873 1136.9 419.567 1136.9 419.262V420.944C1136.9 421.25 1136.72 421.556 1136.37 421.81C1135.47 422.454 1133.8 422.506 1132.79 421.922V420.24Z" fill="#75DCC0" stroke="#151515" stroke-width="2" stroke-linejoin="round"/>
<path opacity="0.2" d="M1325.05 301.45L1405.31 347.679L1477.27 306.378L1397.01 260.148L1325.05 301.45Z" fill="#151515" stroke="#151515" stroke-width="2" stroke-linecap="round" stroke-linejoin="round"/>
<path d="M1325.05 277.301L1405.31 323.531L1477.27 282.229L1397.01 236L1325.05 277.301Z" fill="#3BBB96" stroke="#151515" stroke-width="2" stroke-linecap="round" stroke-linejoin="round"/>
<path d="M1405.32 335.43V323.532L1477.28 282.23L1477.28 294.129L1405.32 335.43Z" fill="#75DCC0" stroke="#151515" stroke-width="2" stroke-linecap="round" stroke-linejoin="round"/>
<path d="M1325.05 277.302L1405.31 323.531V335.429L1325.05 289.2V277.302Z" fill="#151515" stroke="#151515" stroke-width="2" stroke-linecap="round" stroke-linejoin="round"/>
<path d="M1340.44 276.443L1404.56 313.108L1420.62 303.845L1356.49 267.18L1340.44 276.443Z" fill="#75DCC0" stroke="#151515" stroke-width="2" stroke-linejoin="round"/>
<path d="M1420.61 303.844L1404.55 313.107V314.651L1420.61 305.388V303.844Z" fill="#75DCC0" stroke="#151515" stroke-width="2" stroke-linejoin="round"/>
<path d="M1340.44 276.442L1404.56 313.108V314.652L1340.44 277.986V276.442Z" fill="#151515" stroke="#151515" stroke-width="2" stroke-linejoin="round"/>
<path d="M1429.78 263.073L1459.38 279.996L1424.17 300.302L1394.58 283.38L1429.78 263.073Z" fill="#75DCC0" stroke="#151515" stroke-width="2" stroke-linejoin="round"/>
<path d="M1429.78 261.382L1459.38 278.304L1424.17 298.611L1394.58 281.689L1429.78 261.382Z" fill="#75DCC0" stroke="#151515" stroke-width="2" stroke-linejoin="round"/>
<path d="M1424.17 298.612L1459.37 278.305V279.997L1424.17 300.304V298.612Z" fill="#75DCC0" stroke="#151515" stroke-width="2" stroke-linejoin="round"/>
<path d="M1394.58 281.688L1424.17 298.61V300.302L1394.58 283.38V281.688Z" fill="#151515" stroke="#151515" stroke-width="2" stroke-linejoin="round"/>
<path d="M1371 259.33L1395.41 272.656L1387.94 276.676L1363.52 263.349L1371 259.33Z" fill="#151515" stroke="#151515" stroke-width="2" stroke-linejoin="round"/>
<path d="M1371 257.637L1395.41 270.963L1387.94 274.982L1363.52 261.656L1371 257.637Z" fill="#75DCC0" stroke="#151515" stroke-width="2" stroke-linejoin="round"/>
<path d="M1387.93 274.982L1395.41 270.963V272.655L1387.93 276.674V274.982Z" fill="#75DCC0" stroke="#151515" stroke-width="2" stroke-linejoin="round"/>
<path d="M1363.52 261.656L1387.94 274.983V276.675L1363.52 263.348V261.656Z" fill="#151515" stroke="#151515" stroke-width="2" stroke-linejoin="round"/>
<path d="M1388.73 250.986C1389.68 250.435 1391.23 250.436 1392.19 250.988L1409.95 261.269C1410.84 261.784 1410.89 262.605 1410.08 263.159C1409.16 263.78 1407.52 263.818 1406.52 263.242L1388.73 252.979C1387.77 252.429 1387.77 251.536 1388.73 250.986Z" fill="#151515" stroke="#151515" stroke-width="2" stroke-linejoin="round"/>
<path d="M1388.73 249.296C1389.68 248.744 1391.23 248.745 1392.19 249.297L1409.95 259.579C1410.84 260.093 1410.89 260.915 1410.08 261.468C1409.16 262.09 1407.52 262.128 1406.52 261.551L1388.73 251.289C1387.77 250.738 1387.77 249.846 1388.73 249.296Z" fill="#75DCC0" stroke="#151515" stroke-width="2" stroke-linejoin="round"/>
<path d="M1388.73 251.29L1406.52 261.552V263.244L1388.73 252.982C1388.27 252.719 1388.03 252.377 1388.01 252.033L1388.01 250.3C1388.02 250.658 1388.25 251.016 1388.73 251.29Z" fill="#151515" stroke="#151515" stroke-width="2" stroke-linejoin="round"/>
<path d="M1406.54 261.55C1407.53 262.126 1409.18 262.088 1410.09 261.467C1410.46 261.214 1410.65 260.905 1410.67 260.596V262.288C1410.65 262.598 1410.46 262.906 1410.09 263.159C1409.18 263.78 1407.53 263.819 1406.54 263.242V261.55Z" fill="#75DCC0" stroke="#151515" stroke-width="2" stroke-linejoin="round"/>
<path d="M1380.68 255.64C1381.63 255.089 1383.18 255.09 1384.14 255.642L1401.9 265.923C1402.79 266.438 1402.84 267.26 1402.03 267.813C1401.11 268.434 1399.47 268.472 1398.47 267.896L1380.68 257.634C1379.72 257.083 1379.72 256.191 1380.68 255.64Z" fill="#151515" stroke="#151515" stroke-width="2" stroke-linejoin="round"/>
<path d="M1380.68 253.949C1381.63 253.398 1383.18 253.399 1384.14 253.951L1401.9 264.232C1402.79 264.747 1402.84 265.568 1402.03 266.122C1401.11 266.743 1399.47 266.781 1398.47 266.204L1380.68 255.942C1379.72 255.392 1379.72 254.499 1380.68 253.949Z" fill="#75DCC0" stroke="#151515" stroke-width="2" stroke-linejoin="round"/>
<path d="M1380.68 255.944L1398.47 266.206V267.898L1380.68 257.636C1380.22 257.373 1379.98 257.032 1379.96 256.687L1379.96 254.954C1379.96 255.313 1380.2 255.67 1380.68 255.944Z" fill="#151515" stroke="#151515" stroke-width="2" stroke-linejoin="round"/>
<path d="M1398.48 266.204C1399.48 266.781 1401.12 266.742 1402.04 266.121C1402.41 265.868 1402.6 265.56 1402.61 265.25V266.942C1402.6 267.252 1402.41 267.561 1402.04 267.813C1401.12 268.435 1399.48 268.473 1398.48 267.896V266.204Z" fill="#75DCC0" stroke="#151515" stroke-width="2" stroke-linejoin="round"/>
<path d="M1396.77 246.334C1397.73 245.783 1399.28 245.783 1400.23 246.336L1417.99 256.617C1418.88 257.131 1418.94 257.953 1418.12 258.506C1417.2 259.128 1415.56 259.166 1414.56 258.589L1396.77 248.327C1395.82 247.777 1395.82 246.884 1396.77 246.334Z" fill="#151515" stroke="#151515" stroke-width="2" stroke-linejoin="round"/>
<path d="M1396.77 244.643C1397.73 244.092 1399.28 244.093 1400.23 244.645L1417.99 254.926C1418.88 255.441 1418.94 256.263 1418.12 256.816C1417.2 257.437 1415.56 257.475 1414.56 256.899L1396.77 246.636C1395.82 246.086 1395.82 245.194 1396.77 244.643Z" fill="#75DCC0" stroke="#151515" stroke-width="2" stroke-linejoin="round"/>
<path d="M1396.77 246.637L1414.56 256.9V258.592L1396.77 248.329C1396.31 248.066 1396.08 247.725 1396.06 247.38L1396.05 245.647C1396.06 246.006 1396.3 246.364 1396.77 246.637Z" fill="#151515" stroke="#151515" stroke-width="2" stroke-linejoin="round"/>
<path d="M1414.58 256.897C1415.58 257.474 1417.22 257.436 1418.13 256.814C1418.51 256.562 1418.7 256.253 1418.71 255.943V257.636C1418.7 257.945 1418.51 258.254 1418.13 258.507C1417.22 259.128 1415.58 259.166 1414.58 258.59V256.897Z" fill="#75DCC0" stroke="#151515" stroke-width="2" stroke-linejoin="round"/>
<path d="M94.5081 338.189C63.7384 355.966 13.8509 355.966 -16.9188 338.189C-32.3037 329.301 -39.9961 317.651 -39.9961 306.002L-39.9961 570.149L107.585 570.149C113.108 570.149 117.585 565.672 117.585 560.149L117.585 306.012C117.581 317.658 109.888 329.303 94.5081 338.189Z" fill="url(#paint7_linear_46_1182)"/>
<path d="M117.585 305.991C117.585 305.979 117.585 305.968 117.585 305.957L117.585 305.991Z" fill="url(#paint8_linear_46_1182)"/>
<path d="M94.5081 338.189C63.7384 355.966 13.8509 355.966 -16.9188 338.189C-32.3037 329.301 -39.9961 317.651 -39.9961 306.002L-39.9961 570.149L107.585 570.149C113.108 570.149 117.585 565.672 117.585 560.149L117.585 306.012C117.581 317.658 109.888 329.303 94.5081 338.189Z" stroke="#151515" stroke-width="2" stroke-linejoin="round"/>
<path d="M117.585 305.991C117.585 305.979 117.585 305.968 117.585 305.957L117.585 305.991Z" stroke="#151515" stroke-width="2" stroke-linejoin="round"/>
<path d="M65.2542 348.893C37.4934 354.597 5.30278 351.03 -16.9177 338.193C-32.323 329.293 -40.0154 317.624 -39.995 305.959L-39.9961 305.959L-39.9961 570.149L65.2542 570.149L65.2542 348.893Z" fill="#151515" stroke="#151515" stroke-width="2" stroke-linejoin="round"/>
<path d="M-16.9227 337.979C13.847 355.909 63.7345 355.909 94.5042 337.979C125.274 320.05 125.274 290.98 94.5042 273.051C63.7345 255.121 13.847 255.121 -16.9227 273.051C-47.6924 290.98 -47.6924 320.05 -16.9227 337.979Z" fill="#8E44EC" stroke="#151515" stroke-width="2" stroke-linejoin="round"/>
<path d="M243.171 399.738C212.402 417.514 162.514 417.514 131.744 399.738C116.359 390.85 108.667 379.2 108.667 367.55L108.667 570.148L266.248 570.148L266.248 367.561C266.244 379.207 258.551 390.852 243.171 399.738Z" fill="url(#paint9_linear_46_1182)"/>
<path d="M266.248 367.539C266.248 367.528 266.248 367.517 266.248 367.506L266.248 367.539Z" fill="url(#paint10_linear_46_1182)"/>
<path d="M243.171 399.738C212.402 417.514 162.514 417.514 131.744 399.738C116.359 390.85 108.667 379.2 108.667 367.55L108.667 570.148L266.248 570.148L266.248 367.561C266.244 379.207 258.551 390.852 243.171 399.738Z" stroke="#151515" stroke-width="2" stroke-linejoin="round"/>
<path d="M266.248 367.539C266.248 367.528 266.248 367.517 266.248 367.506L266.248 367.539Z" stroke="#151515" stroke-width="2" stroke-linejoin="round"/>
<path d="M213.917 410.442C186.157 416.146 153.966 412.579 131.745 399.742C116.34 390.841 108.648 379.173 108.668 367.508L108.667 367.508L108.667 570.147L213.917 570.147L213.917 410.442Z" fill="#151515" stroke="#151515" stroke-width="2" stroke-linejoin="round"/>
<path d="M243.177 399.53C212.407 417.46 162.519 417.46 131.75 399.53C100.98 381.6 100.98 352.531 131.75 334.601C162.519 316.672 212.407 316.672 243.177 334.601C273.946 352.531 273.946 381.601 243.177 399.53Z" fill="#8E44EC" stroke="#151515" stroke-width="2" stroke-linejoin="round"/>
<path d="M391.856 461.291C361.086 479.067 311.199 479.067 280.429 461.291C265.044 452.402 257.352 440.753 257.352 429.103L257.352 560.149C257.352 565.672 261.829 570.149 267.352 570.149L414.933 570.149L414.933 429.114C414.928 440.76 407.236 452.405 391.856 461.291Z" fill="url(#paint11_linear_46_1182)"/>
<path d="M414.933 429.114C414.933 429.107 414.933 429.099 414.933 429.092L414.933 429.114Z" fill="url(#paint12_linear_46_1182)"/>
<path d="M414.933 429.092C414.933 429.081 414.933 429.07 414.933 429.059Z" fill="url(#paint13_linear_46_1182)"/>
<path d="M414.933 429.114L414.933 570.149L267.352 570.149C261.829 570.149 257.352 565.672 257.352 560.149L257.352 429.103C257.352 440.753 265.044 452.402 280.429 461.291C311.199 479.067 361.086 479.067 391.856 461.291C407.236 452.405 414.928 440.76 414.933 429.114ZM414.933 429.114C414.933 429.107 414.933 429.099 414.933 429.092M414.933 429.114L414.933 429.092M414.933 429.092C414.933 429.081 414.933 429.07 414.933 429.059L414.933 429.092Z" stroke="#151515" stroke-width="2" stroke-linejoin="round"/>
<path d="M362.602 471.995C334.841 477.699 302.65 474.132 280.43 461.294C265.025 452.394 257.332 440.726 257.353 429.061L257.352 429.061L257.352 560.15C257.352 565.673 261.829 570.15 267.352 570.15L362.602 570.15L362.602 471.995Z" fill="#151515" stroke="#151515" stroke-width="2" stroke-linejoin="round"/>
<path d="M391.862 461.083C361.092 479.012 311.205 479.012 280.435 461.083C249.666 443.153 249.666 414.084 280.435 396.154C311.205 378.225 361.092 378.225 391.862 396.154C422.632 414.084 422.632 443.153 391.862 461.083Z" fill="#8E44EC" stroke="#151515" stroke-width="2" stroke-linejoin="round"/>
<path opacity="0.2" d="M108.967 368.24L184.894 411.975L265.309 365.836L189.382 322.102L108.967 368.24Z" fill="#151515" stroke="#151515" stroke-width="2" stroke-linecap="round" stroke-linejoin="round"/>
<path d="M108.967 345.395L184.894 389.129L258.473 346.913L182.545 303.179L108.967 345.395Z" fill="#59B5F8" stroke="#151515" stroke-width="2" stroke-linecap="round" stroke-linejoin="round"/>
<path d="M184.895 400.385V389.128L258.538 346.975V358.231L184.895 400.385Z" fill="#87D9FD" stroke="#151515" stroke-width="2" stroke-linecap="round" stroke-linejoin="round"/>
<path d="M108.967 345.396L184.894 389.13V400.386L108.967 356.652V345.396Z" fill="#151515" stroke="#151515" stroke-width="2" stroke-linecap="round" stroke-linejoin="round"/>
<path d="M135.564 334.965L119.312 344.34L151.76 362.894L184.208 381.448L201.475 371.488L218.743 361.527L186.295 342.973L153.847 324.419L135.564 334.965Z" fill="#87D9FD" stroke="#151515" stroke-width="2" stroke-linejoin="round"/>
<path d="M168.937 348.05L171.101 353.79L161.147 352.542L168.937 348.05Z" fill="#87D9FD" stroke="#151515" stroke-width="2" stroke-linecap="round" stroke-linejoin="round"/>
<path d="M171.101 353.79L168.937 348.05L161.147 352.542L163.76 352.87L168.937 349.884L170.375 353.699L171.101 353.79Z" fill="#59B5F8"/>
<path d="M168.937 348.05L171.101 353.79L170.375 353.699L168.937 349.884M168.937 348.05L161.147 352.542L163.76 352.87L168.937 349.884M168.937 348.05V349.884" stroke="#151515" stroke-width="2" stroke-linecap="round" stroke-linejoin="round"/>
<path d="M184.214 383.011V381.449L218.749 361.527V363.09L184.214 383.011Z" fill="#87D9FD" stroke="#151515" stroke-width="2" stroke-linejoin="round"/>
<path d="M119.312 344.339L184.208 381.447V383.01L119.312 345.901V344.339Z" fill="#151515" stroke="#151515" stroke-width="2" stroke-linejoin="round"/>
<path d="M197.632 325.219C198.536 324.697 200.002 324.698 200.905 325.22L217.708 334.947C218.548 335.434 218.602 336.211 217.83 336.734C216.964 337.322 215.412 337.358 214.466 336.813L197.632 327.104C196.729 326.584 196.729 325.739 197.632 325.219Z" fill="#87D9FD" stroke="#151515" stroke-width="2" stroke-linejoin="round"/>
<path d="M197.632 323.619C198.536 323.098 200.002 323.098 200.905 323.621L217.708 333.347C218.548 333.834 218.602 334.611 217.83 335.135C216.964 335.723 215.412 335.759 214.466 335.213L197.632 325.505C196.729 324.984 196.729 324.14 197.632 323.619Z" fill="#87D9FD" stroke="#151515" stroke-width="2" stroke-linejoin="round"/>
<path d="M197.632 325.505L214.466 335.214V336.815L197.632 327.106C197.185 326.848 196.96 326.512 196.955 326.174L196.955 324.567C196.957 324.907 197.183 325.246 197.632 325.505Z" fill="#151515" stroke="#151515" stroke-width="2" stroke-linejoin="round"/>
<path d="M214.466 335.213C215.412 335.759 216.963 335.723 217.83 335.135C218.194 334.888 218.374 334.584 218.375 334.281V335.882C218.374 336.185 218.194 336.489 217.83 336.736C216.963 337.324 215.412 337.36 214.466 336.814V335.213Z" fill="#87D9FD" stroke="#151515" stroke-width="2" stroke-linejoin="round"/>
<path d="M177.209 321.218C178.113 320.697 179.578 320.697 180.481 321.219L223.355 345.985C224.133 346.434 224.246 347.14 223.623 347.664C222.812 348.345 221.129 348.435 220.117 347.851L177.209 323.105C176.305 322.584 176.305 321.739 177.209 321.218Z" fill="#87D9FD" stroke="#151515" stroke-width="2" stroke-linejoin="round"/>
<path d="M177.209 319.618C178.113 319.097 179.578 319.097 180.481 319.619L223.355 344.385C224.133 344.835 224.246 345.54 223.623 346.064C222.812 346.745 221.129 346.835 220.117 346.251L177.209 321.505C176.305 320.984 176.305 320.139 177.209 319.618Z" fill="#87D9FD" stroke="#151515" stroke-width="2" stroke-linejoin="round"/>
<path d="M177.209 321.504L220.117 346.25V347.851L177.209 323.105C176.749 322.84 176.524 322.491 176.531 322.144V320.58C176.531 320.567 176.531 320.555 176.531 320.542V320.58C176.54 320.915 176.765 321.249 177.209 321.504Z" fill="#151515"/>
<path d="M177.209 321.504L220.117 346.25V347.851L177.209 323.105C176.749 322.84 176.524 322.491 176.531 322.144V320.542C176.523 320.89 176.749 321.239 177.209 321.504Z" stroke="#151515" stroke-width="2" stroke-linejoin="round"/>
<path d="M220.123 346.251C221.136 346.835 222.819 346.745 223.629 346.065C223.89 345.845 224.022 345.594 224.03 345.343V346.895C224.038 347.162 223.907 347.432 223.629 347.665C222.819 348.346 221.136 348.436 220.123 347.852V346.251Z" fill="#87D9FD" stroke="#151515" stroke-width="2" stroke-linejoin="round"/>
<path d="M178.737 328.152C179.641 327.631 181.107 327.632 182.01 328.153L213.103 346.125C213.91 346.591 213.997 347.328 213.309 347.854C212.47 348.493 210.847 348.557 209.864 347.991L178.737 330.039C177.834 329.518 177.834 328.673 178.737 328.152Z" fill="#87D9FD" stroke="#151515" stroke-width="2" stroke-linejoin="round"/>
<path d="M178.737 326.553C179.641 326.031 181.107 326.032 182.01 326.554L213.103 344.525C213.91 344.991 213.997 345.729 213.309 346.254C212.47 346.893 210.847 346.958 209.864 346.391L178.737 328.439C177.834 327.918 177.834 327.074 178.737 326.553Z" fill="#87D9FD" stroke="#151515" stroke-width="2" stroke-linejoin="round"/>
<path d="M178.737 328.439L209.864 346.391V347.992L178.737 330.04C178.278 329.775 178.052 329.427 178.06 329.08V327.513C178.06 327.502 178.06 327.491 178.06 327.479V327.513C178.067 327.849 178.293 328.183 178.737 328.439Z" fill="#151515"/>
<path d="M178.737 328.439L209.864 346.391V347.992L178.737 330.04C178.278 329.775 178.052 329.427 178.06 329.08V327.479C178.052 327.826 178.278 328.175 178.737 328.439Z" stroke="#151515" stroke-width="2" stroke-linejoin="round"/>
<path d="M209.859 346.391C210.842 346.957 212.465 346.893 213.304 346.254C213.603 346.026 213.755 345.758 213.766 345.489V347.09C213.755 347.359 213.603 347.627 213.304 347.855C212.465 348.494 210.842 348.558 209.859 347.992V346.391Z" fill="#87D9FD" stroke="#151515" stroke-width="2" stroke-linejoin="round"/>
<path opacity="0.2" d="M410.66 431.214L330.864 385.251L261.01 425.349L340.806 471.312L410.66 431.214Z" fill="#151515" stroke="#151515" stroke-width="2" stroke-linecap="round" stroke-linejoin="round"/>
<path d="M261.01 401.366L340.806 447.329V459.159L261.01 413.196V401.366Z" fill="#151515" stroke="#151515" stroke-width="2" stroke-linecap="round" stroke-linejoin="round"/>
<path d="M410.66 407.23L330.864 361.268L261.01 401.366L340.806 447.329L410.66 407.23Z" fill="#59B5F8" stroke="#151515" stroke-width="2" stroke-linecap="round" stroke-linejoin="round"/>
<path d="M410.655 419.059L410.655 407.229L340.913 447.248L340.913 459.077L410.655 419.059Z" fill="#87D9FD" stroke="#151515" stroke-width="2" stroke-linecap="round" stroke-linejoin="round"/>
<path d="M361.132 386.452L331.709 369.627L283.582 397.388L313.006 414.213L361.132 386.452Z" fill="#87D9FD" stroke="#151515" stroke-width="2" stroke-linejoin="round"/>
<path d="M361.132 384.769L331.709 367.944L283.582 395.705L313.006 412.53L361.132 384.769Z" fill="#87D9FD" stroke="#151515" stroke-width="2" stroke-linejoin="round"/>
<path d="M313.006 412.53L283.582 395.705V397.388L313.006 414.212V412.53Z" fill="#151515" stroke="#151515" stroke-width="2" stroke-linejoin="round"/>
<path d="M313.009 412.53L361.135 384.769V386.451L313.009 414.212V412.53Z" fill="#87D9FD" stroke="#151515" stroke-width="2" stroke-linejoin="round"/>
<path d="M365.734 391.653C366.684 391.105 368.225 391.107 369.173 391.656L380.879 398.442C381.776 398.962 381.817 399.796 380.97 400.344C380.05 400.941 378.449 400.967 377.47 400.403L365.734 393.634C364.785 393.087 364.785 392.2 365.734 391.653Z" fill="#151515" stroke="#151515" stroke-width="2" stroke-linejoin="round"/>
<path d="M365.734 389.971C366.684 389.423 368.225 389.424 369.173 389.973L380.879 396.759C381.776 397.28 381.817 398.113 380.97 398.661C380.05 399.258 378.449 399.285 377.47 398.72L365.734 391.952C364.785 391.405 364.785 390.518 365.734 389.971Z" fill="#87D9FD" stroke="#151515" stroke-width="2" stroke-linejoin="round"/>
<path d="M365.734 391.951L377.469 398.719V400.402L365.734 393.633C365.242 393.35 365.006 392.975 365.023 392.604V391.004C365.042 391.348 365.279 391.689 365.734 391.951Z" fill="#151515" stroke="#151515" stroke-width="2" stroke-linejoin="round"/>
<path d="M377.475 398.718C378.454 399.283 380.055 399.256 380.975 398.659C381.38 398.397 381.582 398.069 381.584 397.742V397.731C381.584 397.735 381.584 397.738 381.584 397.742V399.424C381.582 399.752 381.38 400.079 380.975 400.342C380.055 400.938 378.454 400.965 377.475 400.401V398.718Z" fill="#87D9FD"/>
<path d="M380.975 398.659C380.055 399.256 378.454 399.283 377.475 398.718V400.401C378.454 400.965 380.055 400.938 380.975 400.342C381.38 400.079 381.582 399.752 381.584 399.424V397.731C381.587 398.062 381.385 398.394 380.975 398.659Z" stroke="#151515" stroke-width="2" stroke-linejoin="round"/>
<path d="M357.731 394.598C358.681 394.05 360.222 394.051 361.171 394.599L386.118 409.027C386.984 409.528 387.058 410.324 386.29 410.876C385.393 411.519 383.726 411.572 382.713 410.988L357.731 396.58C356.782 396.033 356.782 395.145 357.731 394.598Z" fill="#87D9FD" stroke="#151515" stroke-width="2" stroke-linejoin="round"/>
<path d="M357.731 394.598C358.681 394.05 360.222 394.051 361.171 394.599L386.118 409.027C386.984 409.528 387.058 410.324 386.29 410.876C385.393 411.519 383.726 411.572 382.713 410.988L357.731 396.58C356.782 396.033 356.782 395.145 357.731 394.598Z" fill="#87D9FD" stroke="#151515" stroke-width="2" stroke-linejoin="round"/>
<path d="M357.731 396.58L382.713 410.988C382.713 411.736 381.903 412.203 381.256 411.829L357.731 398.263C357.251 397.985 357.014 397.621 357.02 397.258V395.603C357.026 395.957 357.263 396.31 357.731 396.58Z" fill="#151515" stroke="#151515" stroke-width="2" stroke-linejoin="round"/>
<path d="M382.719 410.988C383.731 411.572 385.399 411.519 386.296 410.876C386.65 410.621 386.825 410.315 386.826 410.01V411.692C386.825 411.998 386.65 412.304 386.296 412.558C385.399 413.202 383.731 413.254 382.719 412.67V410.988Z" fill="#87D9FD" stroke="#151515" stroke-width="2" stroke-linejoin="round"/>
<path d="M349.73 399.222C350.68 398.674 352.221 398.675 353.17 399.223L378.117 413.651C378.983 414.152 379.057 414.948 378.289 415.5C377.392 416.144 375.725 416.196 374.712 415.612L349.73 401.204C348.781 400.657 348.781 399.769 349.73 399.222Z" fill="#87D9FD" stroke="#151515" stroke-width="2" stroke-linejoin="round"/>
<path d="M349.73 399.222C350.68 398.674 352.221 398.675 353.17 399.223L378.117 413.651C378.983 414.152 379.057 414.948 378.289 415.5C377.392 416.144 375.725 416.196 374.712 415.612L349.73 401.204C348.781 400.657 348.781 399.769 349.73 399.222Z" fill="#87D9FD" stroke="#151515" stroke-width="2" stroke-linejoin="round"/>
<path d="M349.73 401.204L374.712 415.612V417.294L349.73 402.887C349.25 402.609 349.013 402.245 349.019 401.882V400.227C349.025 400.581 349.262 400.934 349.73 401.204Z" fill="#151515" stroke="#151515" stroke-width="2" stroke-linejoin="round"/>
<path d="M374.717 415.613C375.729 416.197 377.397 416.144 378.294 415.501C378.648 415.246 378.823 414.94 378.824 414.635V416.317C378.823 416.623 378.648 416.929 378.294 417.183C377.397 417.827 375.729 417.879 374.717 417.295V415.613Z" fill="#87D9FD" stroke="#151515" stroke-width="2" stroke-linejoin="round"/>
<path d="M340.471 403.849C341.421 403.301 342.961 403.302 343.91 403.85L368.857 418.278C369.723 418.779 369.798 419.575 369.029 420.127C368.132 420.77 366.465 420.823 365.452 420.239L340.471 405.831C339.522 405.284 339.522 404.396 340.471 403.849Z" fill="#87D9FD" stroke="#151515" stroke-width="2" stroke-linejoin="round"/>
<path d="M340.471 403.849C341.421 403.301 342.961 403.302 343.91 403.85L368.857 418.278C369.723 418.779 369.798 419.575 369.029 420.127C368.132 420.77 366.465 420.823 365.452 420.239L340.471 405.831C339.522 405.284 339.522 404.396 340.471 403.849Z" fill="#87D9FD" stroke="#151515" stroke-width="2" stroke-linejoin="round"/>
<path d="M340.471 405.831L365.452 420.239V421.921L340.471 407.513C339.99 407.236 339.753 406.872 339.759 406.509V404.854C339.765 405.208 340.002 405.561 340.471 405.831Z" fill="#151515" stroke="#151515" stroke-width="2" stroke-linejoin="round"/>
<path d="M365.458 420.24C366.471 420.824 368.138 420.771 369.035 420.128C369.389 419.873 369.564 419.567 369.565 419.262V420.944C369.564 421.25 369.389 421.556 369.035 421.81C368.138 422.454 366.471 422.506 365.458 421.922V420.24Z" fill="#87D9FD" stroke="#151515" stroke-width="2" stroke-linejoin="round"/>
<path opacity="0.2" d="M113.946 301.45L33.688 347.679L-38.2686 306.378L41.9897 260.148L113.946 301.45Z" fill="#151515" stroke="#151515" stroke-width="2" stroke-linecap="round" stroke-linejoin="round"/>
<path d="M-38.2744 277.301L41.9838 323.531L113.94 282.229L33.6822 236L-38.2744 277.301Z" fill="#59B5F8" stroke="#151515" stroke-width="2" stroke-linecap="round" stroke-linejoin="round"/>
<path d="M41.9902 335.43V323.532L113.947 282.23L113.947 294.129L41.9902 335.43Z" fill="#87D9FD" stroke="#151515" stroke-width="2" stroke-linecap="round" stroke-linejoin="round"/>
<path d="M-38.2744 277.302L41.9839 323.531V335.429L-38.2744 289.2V277.302Z" fill="#151515" stroke="#151515" stroke-width="2" stroke-linecap="round" stroke-linejoin="round"/>
<path d="M-22.8916 276.443L41.2306 313.108L57.2889 303.845L-6.83339 267.18L-22.8916 276.443Z" fill="#87D9FD" stroke="#151515" stroke-width="2" stroke-linejoin="round"/>
<path d="M57.2838 303.844L41.2256 313.107V314.651L57.2838 305.388V303.844Z" fill="#87D9FD" stroke="#151515" stroke-width="2" stroke-linejoin="round"/>
<path d="M-22.8916 276.442L41.2306 313.108V314.652L-22.8916 277.986V276.442Z" fill="#151515" stroke="#151515" stroke-width="2" stroke-linejoin="round"/>
<path d="M66.4559 263.073L96.0502 279.996L60.8463 300.302L31.252 283.38L66.4559 263.073Z" fill="#87D9FD" stroke="#151515" stroke-width="2" stroke-linejoin="round"/>
<path d="M66.4559 261.382L96.0502 278.304L60.8463 298.611L31.252 281.689L66.4559 261.382Z" fill="#87D9FD" stroke="#151515" stroke-width="2" stroke-linejoin="round"/>
<path d="M60.8418 298.612L96.0457 278.305V279.997L60.8418 300.304V298.612Z" fill="#87D9FD" stroke="#151515" stroke-width="2" stroke-linejoin="round"/>
<path d="M31.252 281.688L60.8463 298.61V300.302L31.252 283.38V281.688Z" fill="#151515" stroke="#151515" stroke-width="2" stroke-linejoin="round"/>
<path d="M7.6697 259.33L32.0858 272.656L24.6104 276.676L0.194336 263.349L7.6697 259.33Z" fill="#151515" stroke="#151515" stroke-width="2" stroke-linejoin="round"/>
<path d="M7.6697 257.637L32.0858 270.963L24.6104 274.982L0.194336 261.656L7.6697 257.637Z" fill="#87D9FD" stroke="#151515" stroke-width="2" stroke-linejoin="round"/>
<path d="M24.6025 274.982L32.0779 270.963V272.655L24.6025 276.674V274.982Z" fill="#87D9FD" stroke="#151515" stroke-width="2" stroke-linejoin="round"/>
<path d="M0.194336 261.656L24.6104 274.983V276.675L0.194336 263.348V261.656Z" fill="#151515" stroke="#151515" stroke-width="2" stroke-linejoin="round"/>
<path d="M25.4003 250.986C26.356 250.435 27.9058 250.436 28.8596 250.988L46.6209 261.269C47.5098 261.784 47.566 262.605 46.7503 263.159C45.8345 263.78 44.1943 263.818 43.1945 263.242L25.4003 252.979C24.446 252.429 24.446 251.536 25.4003 250.986Z" fill="#151515" stroke="#151515" stroke-width="2" stroke-linejoin="round"/>
<path d="M25.4003 249.296C26.356 248.744 27.9058 248.745 28.8596 249.297L46.6209 259.579C47.5098 260.093 47.566 260.915 46.7503 261.468C45.8345 262.09 44.1943 262.128 43.1945 261.551L25.4003 251.289C24.446 250.738 24.446 249.846 25.4003 249.296Z" fill="#87D9FD" stroke="#151515" stroke-width="2" stroke-linejoin="round"/>
<path d="M25.4003 251.29L43.1945 261.552V263.244L25.4003 252.982C24.9441 252.719 24.706 252.377 24.6859 252.033L24.6846 250.3C24.6876 250.658 24.9262 251.016 25.4003 251.29Z" fill="#151515" stroke="#151515" stroke-width="2" stroke-linejoin="round"/>
<path d="M43.207 261.55C44.2068 262.126 45.847 262.088 46.7628 261.467C47.1353 261.214 47.326 260.905 47.3386 260.596V262.288C47.326 262.598 47.1353 262.906 46.7628 263.159C45.847 263.78 44.2068 263.819 43.207 263.242V261.55Z" fill="#87D9FD" stroke="#151515" stroke-width="2" stroke-linejoin="round"/>
<path d="M17.3496 255.64C18.3052 255.089 19.855 255.09 20.8088 255.642L38.5701 265.923C39.459 266.438 39.5153 267.26 38.6996 267.813C37.7838 268.434 36.1435 268.472 35.1437 267.896L17.3496 257.634C16.3952 257.083 16.3952 256.191 17.3496 255.64Z" fill="#151515" stroke="#151515" stroke-width="2" stroke-linejoin="round"/>
<path d="M17.3496 253.949C18.3052 253.398 19.855 253.399 20.8088 253.951L38.5701 264.232C39.459 264.747 39.5153 265.568 38.6996 266.122C37.7838 266.743 36.1435 266.781 35.1437 266.204L17.3496 255.942C16.3952 255.392 16.3952 254.499 17.3496 253.949Z" fill="#87D9FD" stroke="#151515" stroke-width="2" stroke-linejoin="round"/>
<path d="M17.3495 255.944L35.1437 266.206V267.898L17.3495 257.636C16.8933 257.373 16.6552 257.032 16.6351 256.687L16.6338 254.954C16.6368 255.313 16.8754 255.67 17.3495 255.944Z" fill="#151515" stroke="#151515" stroke-width="2" stroke-linejoin="round"/>
<path d="M35.1553 266.204C36.1551 266.781 37.7953 266.742 38.7111 266.121C39.0836 265.868 39.2742 265.56 39.2868 265.25V266.942C39.2742 267.252 39.0836 267.561 38.7111 267.813C37.7953 268.435 36.1551 268.473 35.1553 267.896V266.204Z" fill="#87D9FD" stroke="#151515" stroke-width="2" stroke-linejoin="round"/>
<path d="M33.4423 246.334C34.398 245.783 35.9478 245.783 36.9016 246.336L54.6629 256.617C55.5517 257.131 55.608 257.953 54.7923 258.506C53.8765 259.128 52.2363 259.166 51.2365 258.589L33.4423 248.327C32.488 247.777 32.488 246.884 33.4423 246.334Z" fill="#151515" stroke="#151515" stroke-width="2" stroke-linejoin="round"/>
<path d="M33.4423 244.643C34.398 244.092 35.9478 244.093 36.9016 244.645L54.6629 254.926C55.5517 255.441 55.608 256.263 54.7923 256.816C53.8765 257.437 52.2363 257.475 51.2365 256.899L33.4423 246.636C32.488 246.086 32.488 245.194 33.4423 244.643Z" fill="#87D9FD" stroke="#151515" stroke-width="2" stroke-linejoin="round"/>
<path d="M33.4423 246.637L51.2365 256.9V258.592L33.4423 248.329C32.9861 248.066 32.748 247.725 32.7279 247.38L32.7266 245.647C32.7296 246.006 32.9682 246.364 33.4423 246.637Z" fill="#151515" stroke="#151515" stroke-width="2" stroke-linejoin="round"/>
<path d="M51.249 256.897C52.2488 257.474 53.889 257.436 54.8048 256.814C55.1773 256.562 55.368 256.253 55.3805 255.943V257.636C55.368 257.945 55.1773 258.254 54.8048 258.507C53.889 259.128 52.2488 259.166 51.249 258.59V256.897Z" fill="#87D9FD" stroke="#151515" stroke-width="2" stroke-linejoin="round"/>
<path opacity="0.5" d="M204.994 247.828C195.256 253.392 179.469 253.392 169.732 247.828C159.994 242.264 159.994 233.242 169.732 227.678C179.469 222.114 195.256 222.114 204.994 227.678C214.731 233.242 214.731 242.264 204.994 247.828Z" fill="#151515"/>
<ellipse cx="187.36" cy="205.36" rx="38.3599" ry="38.36" fill="#59B5F8" stroke="#151515" stroke-width="2"/>
<path d="M187.36 243.72C208.546 243.72 225.72 226.546 225.72 205.36C225.72 204.233 225.671 203.118 225.576 202.016C223.882 218.269 207.419 231.023 187.36 231.023C167.301 231.023 150.838 218.269 149.144 202.016C149.049 203.118 149 204.233 149 205.36C149 226.546 166.174 243.72 187.36 243.72Z" fill="#151515"/>
<path d="M173.137 169.723C177.535 168.268 182.335 167.467 187.36 167.467C192.385 167.467 197.185 168.268 201.583 169.723C197.185 167.966 192.385 167 187.36 167C182.335 167 177.535 167.966 173.137 169.723Z" fill="#151515"/>
<path d="M187.36 243.72C208.546 243.72 225.72 226.546 225.72 205.36C225.72 204.233 225.671 203.118 225.576 202.016C223.882 218.269 207.419 231.023 187.36 231.023C167.301 231.023 150.838 218.269 149.144 202.016C149.049 203.118 149 204.233 149 205.36C149 226.546 166.174 243.72 187.36 243.72Z" stroke="#151515" stroke-width="2"/>
<path d="M173.137 169.723C177.535 168.268 182.335 167.467 187.36 167.467C192.385 167.467 197.185 168.268 201.583 169.723C197.185 167.966 192.385 167 187.36 167C182.335 167 177.535 167.966 173.137 169.723Z" stroke="#151515" stroke-width="2"/>
<path opacity="0.5" d="M1405.99 144.828C1396.26 150.392 1380.47 150.392 1370.73 144.828C1360.99 139.264 1360.99 130.242 1370.73 124.678C1380.47 119.114 1396.26 119.114 1405.99 124.678C1415.73 130.242 1415.73 139.264 1405.99 144.828Z" fill="#151515"/>
<ellipse cx="1388.36" cy="102.36" rx="38.3599" ry="38.36" fill="#3BBB96" stroke="#151515" stroke-width="2"/>
<path d="M1388.36 140.72C1409.55 140.72 1426.72 123.546 1426.72 102.36C1426.72 101.233 1426.67 100.118 1426.58 99.0156C1424.88 115.269 1408.42 128.023 1388.36 128.023C1368.3 128.023 1351.84 115.269 1350.14 99.0156C1350.05 100.118 1350 101.233 1350 102.36C1350 123.546 1367.17 140.72 1388.36 140.72Z" fill="#151515"/>
<path d="M1374.14 66.7231C1378.54 65.2677 1383.33 64.4673 1388.36 64.4673C1393.39 64.4673 1398.18 65.2677 1402.58 66.7231C1398.18 64.9663 1393.39 64 1388.36 64C1383.33 64 1378.54 64.9663 1374.14 66.7231Z" fill="#151515"/>
<path d="M1388.36 140.72C1409.55 140.72 1426.72 123.546 1426.72 102.36C1426.72 101.233 1426.67 100.118 1426.58 99.0156C1424.88 115.269 1408.42 128.023 1388.36 128.023C1368.3 128.023 1351.84 115.269 1350.14 99.0156C1350.05 100.118 1350 101.233 1350 102.36C1350 123.546 1367.17 140.72 1388.36 140.72Z" stroke="#151515" stroke-width="2"/>
<path d="M1374.14 66.7231C1378.54 65.2677 1383.33 64.4673 1388.36 64.4673C1393.39 64.4673 1398.18 65.2677 1402.58 66.7231C1398.18 64.9663 1393.39 64 1388.36 64C1383.33 64 1378.54 64.9663 1374.14 66.7231Z" stroke="#151515" stroke-width="2"/>
</g>
<defs>
<linearGradient id="paint0_linear_46_1182" x1="1479.21" y1="549.434" x2="1479.21" y2="325.48" gradientUnits="userSpaceOnUse">
<stop stop-color="#8461B0" stop-opacity="0"/>
<stop offset="1" stop-color="#8461B0"/>
</linearGradient>
<linearGradient id="paint1_linear_46_1182" x1="1479.21" y1="549.434" x2="1479.21" y2="325.48" gradientUnits="userSpaceOnUse">
<stop stop-color="#8461B0" stop-opacity="0"/>
<stop offset="1" stop-color="#8461B0"/>
</linearGradient>
<linearGradient id="paint2_linear_46_1182" x1="1330.25" y1="550.984" x2="1330.25" y2="405.129" gradientUnits="userSpaceOnUse">
<stop stop-color="#8461B0" stop-opacity="0"/>
<stop offset="1" stop-color="#8461B0"/>
</linearGradient>
<linearGradient id="paint3_linear_46_1182" x1="1330.25" y1="550.984" x2="1330.25" y2="405.129" gradientUnits="userSpaceOnUse">
<stop stop-color="#8461B0" stop-opacity="0"/>
<stop offset="1" stop-color="#8461B0"/>
</linearGradient>
<linearGradient id="paint4_linear_46_1182" x1="1181.3" y1="560.295" x2="1181.3" y2="467.713" gradientUnits="userSpaceOnUse">
<stop stop-color="#8461B0" stop-opacity="0"/>
<stop offset="1" stop-color="#8461B0"/>
</linearGradient>
<linearGradient id="paint5_linear_46_1182" x1="1181.3" y1="560.295" x2="1181.3" y2="467.713" gradientUnits="userSpaceOnUse">
<stop stop-color="#8461B0" stop-opacity="0"/>
<stop offset="1" stop-color="#8461B0"/>
</linearGradient>
<linearGradient id="paint6_linear_46_1182" x1="1181.3" y1="560.295" x2="1181.3" y2="467.713" gradientUnits="userSpaceOnUse">
<stop stop-color="#8461B0" stop-opacity="0"/>
<stop offset="1" stop-color="#8461B0"/>
</linearGradient>
<linearGradient id="paint7_linear_46_1182" x1="117.795" y1="549.434" x2="117.795" y2="325.48" gradientUnits="userSpaceOnUse">
<stop stop-color="#8461B0" stop-opacity="0"/>
<stop offset="1" stop-color="#8461B0"/>
</linearGradient>
<linearGradient id="paint8_linear_46_1182" x1="117.795" y1="549.434" x2="117.795" y2="325.48" gradientUnits="userSpaceOnUse">
<stop stop-color="#8461B0" stop-opacity="0"/>
<stop offset="1" stop-color="#8461B0"/>
</linearGradient>
<linearGradient id="paint9_linear_46_1182" x1="266.167" y1="550.984" x2="266.167" y2="405.129" gradientUnits="userSpaceOnUse">
<stop stop-color="#8461B0" stop-opacity="0"/>
<stop offset="1" stop-color="#8461B0"/>
</linearGradient>
<linearGradient id="paint10_linear_46_1182" x1="266.167" y1="550.984" x2="266.167" y2="405.129" gradientUnits="userSpaceOnUse">
<stop stop-color="#8461B0" stop-opacity="0"/>
<stop offset="1" stop-color="#8461B0"/>
</linearGradient>
<linearGradient id="paint11_linear_46_1182" x1="414.581" y1="560.295" x2="414.581" y2="467.713" gradientUnits="userSpaceOnUse">
<stop stop-color="#8461B0" stop-opacity="0"/>
<stop offset="1" stop-color="#8461B0"/>
</linearGradient>
<linearGradient id="paint12_linear_46_1182" x1="414.581" y1="560.295" x2="414.581" y2="467.713" gradientUnits="userSpaceOnUse">
<stop stop-color="#8461B0" stop-opacity="0"/>
<stop offset="1" stop-color="#8461B0"/>
</linearGradient>
<linearGradient id="paint13_linear_46_1182" x1="414.581" y1="560.295" x2="414.581" y2="467.713" gradientUnits="userSpaceOnUse">
<stop stop-color="#8461B0" stop-opacity="0"/>
<stop offset="1" stop-color="#8461B0"/>
</linearGradient>
<clipPath id="clip0_46_1182">
<rect width="1440" height="570" fill="white"/>
</clipPath>
</defs>
</svg>
